<svg version="1.1" id="Layer_1" xmlns="http://www.w3.org/2000/svg" xmlns:xlink="http://www.w3.org/1999/xlink" x="0px" y="0px"
	 viewBox="0 0 440 154.7" style="enable-background:new 0 0 440 154.7;" xml:space="preserve">
<style type="text/css">
	.st0{enable-background:new    ;}
	.st1{fill:#E7E2D8;}
	.st2{display:none;}
	.st3{display:inline;fill:#4D4D4F;}
	.st4{font-family:'Gotham-Medium';}
	.st5{font-size:76.0416px;}
	.st6{display:inline;}
	.st7{fill:#4D4D4F;}
</style>
<g>
	<g class="st0">
		<path class="st1" d="M129.4,81.3v7.6h-10.5v32.2h-9.3V88.9h-5.1v-7.7h5.1v-2.9c0-4.5,1.1-7.8,3.2-9.9c2.1-2.2,5.2-3.2,9.2-3.2
			c1.6,0,3,0.1,4.2,0.3c1.2,0.2,2.3,0.5,3.3,0.8V74c-0.9-0.3-1.8-0.5-2.6-0.7c-0.8-0.2-1.8-0.3-2.8-0.3c-3.5,0-5.3,2-5.3,6.1v2.2
			H129.4z"/>
		<path class="st1" d="M176.4,82.1c2.2-1.3,4.8-2,7.9-2c4.4,0,7.9,1.3,10.3,4c2.5,2.7,3.7,6.5,3.7,11.4v25.6H189V98.4
			c0-3.2-0.7-5.6-2.1-7.3c-1.4-1.7-3.4-2.5-6-2.5c-2.5,0-4.6,0.8-6.2,2.5c-1.6,1.7-2.4,4.2-2.4,7.4v22.6h-9.3V98.3
			c0-3.1-0.7-5.5-2.1-7.2c-1.4-1.7-3.4-2.5-6-2.5c-2.6,0-4.6,0.9-6.2,2.7c-1.6,1.8-2.3,4.2-2.3,7.4v22.5h-9.3V81h9.3v6.1
			c0.7-0.9,1.4-1.8,2.1-2.6c0.8-0.8,1.6-1.6,2.6-2.2c1-0.7,2.1-1.2,3.3-1.6c1.2-0.4,2.6-0.6,4.1-0.6c2.9,0,5.3,0.7,7.3,2
			s3.5,3,4.6,5.2C172.2,85.2,174.1,83.4,176.4,82.1z"/>
		<path class="st1" d="M219.7,121.2h-9.3V81h9.3v9.1c1.3-3,3.1-5.5,5.4-7.3c2.3-1.8,5.3-2.7,8.8-2.5V90h-0.5c-2,0-3.9,0.3-5.6,1
			s-3.1,1.6-4.3,3s-2.2,3-2.8,5c-0.7,2-1,4.3-1,7V121.2z"/>
		<path class="st1" d="M280.4,109.2c-1.1,2.5-2.6,4.8-4.5,6.7c-1.9,1.9-4.2,3.4-6.8,4.5c-2.6,1.1-5.5,1.7-8.6,1.7
			c-3,0-5.9-0.5-8.5-1.6c-2.6-1.1-4.9-2.6-6.8-4.5c-1.9-1.9-3.4-4.1-4.4-6.6s-1.6-5.2-1.6-8.1c0-2.9,0.5-5.6,1.6-8.2
			c1.1-2.6,2.6-4.8,4.5-6.7c1.9-1.9,4.2-3.4,6.8-4.5c2.6-1.1,5.5-1.7,8.6-1.7c3.1,0,5.9,0.5,8.6,1.6c2.6,1.1,4.9,2.6,6.8,4.5
			c1.9,1.9,3.4,4.1,4.4,6.7s1.6,5.2,1.6,8.1C282,104,281.5,106.7,280.4,109.2z M271.8,96.2c-0.6-1.6-1.4-3-2.5-4.1
			c-1.1-1.2-2.4-2.1-3.9-2.8c-1.5-0.7-3.1-1-4.9-1c-1.8,0-3.5,0.3-5,1c-1.5,0.7-2.8,1.6-3.8,2.8s-1.9,2.5-2.4,4.1s-0.8,3.2-0.8,5
			c0,1.8,0.3,3.5,0.9,5.1c0.6,1.6,1.4,3,2.5,4.1c1.1,1.2,2.4,2.1,3.9,2.8c1.5,0.7,3.1,1,4.9,1c1.9,0,3.5-0.3,5-1
			c1.5-0.7,2.8-1.6,3.8-2.8c1.1-1.2,1.9-2.5,2.4-4.1c0.6-1.5,0.8-3.2,0.8-5S272.4,97.8,271.8,96.2z"/>
		<path class="st1" d="M319.9,114.9c-0.8,1.6-1.8,2.9-3.2,3.9c-1.3,1-2.9,1.8-4.8,2.4c-1.8,0.5-3.8,0.8-5.9,0.8
			c-2.9,0-5.8-0.5-8.8-1.5s-5.7-2.5-8.3-4.5l4.1-6.2c2.2,1.6,4.4,2.9,6.7,3.7c2.3,0.8,4.4,1.3,6.5,1.3c2,0,3.5-0.4,4.6-1.2
			c1.1-0.8,1.6-1.8,1.6-3.2v-0.2c0-0.8-0.2-1.4-0.7-2c-0.5-0.6-1.1-1.1-2-1.5c-0.8-0.4-1.8-0.8-2.9-1.1c-1.1-0.3-2.2-0.7-3.4-1
			c-1.5-0.5-3-1-4.4-1.5c-1.5-0.6-2.8-1.3-4-2.2c-1.2-0.9-2.2-2-2.9-3.3c-0.8-1.3-1.1-2.9-1.1-4.8v-0.2c0-1.9,0.4-3.6,1.1-5.1
			c0.7-1.5,1.7-2.8,3-3.9c1.3-1.1,2.8-1.9,4.6-2.4c1.7-0.6,3.6-0.8,5.6-0.8c2.5,0,5.1,0.4,7.7,1.2c2.6,0.8,4.9,1.9,7.1,3.3l-3.7,6.5
			c-1.9-1.2-3.9-2.1-5.9-2.8c-2-0.7-3.8-1-5.5-1c-1.8,0-3.2,0.4-4.1,1.1c-1,0.8-1.5,1.7-1.5,2.9v0.2c0,0.7,0.3,1.3,0.8,1.9
			c0.5,0.5,1.2,1,2,1.4c0.8,0.4,1.8,0.8,2.9,1.2c1.1,0.4,2.2,0.7,3.4,1.1c1.5,0.5,2.9,1,4.4,1.6c1.5,0.6,2.8,1.4,4,2.2
			c1.2,0.9,2.2,2,2.9,3.2c0.8,1.3,1.1,2.8,1.1,4.6v0.2C321,111.4,320.7,113.3,319.9,114.9z"/>
		<path class="st1" d="M341.8,108.6c0,1.8,0.4,3.1,1.3,3.9c0.9,0.8,2.1,1.2,3.7,1.2c2,0,3.9-0.5,5.7-1.4v7.5
			c-1.2,0.7-2.4,1.2-3.7,1.5s-2.8,0.5-4.6,0.5c-1.7,0-3.2-0.2-4.7-0.6c-1.4-0.4-2.7-1.1-3.7-2c-1-0.9-1.9-2.1-2.4-3.6
			c-0.6-1.5-0.8-3.4-0.8-5.6V88.9h-5.1V81h5.1V70h9.3v11h10.8v7.8h-10.8V108.6z"/>
		<path class="st1" d="M372.6,111.9c2.1,1.7,4.6,2.6,7.6,2.6c2.3,0,4.3-0.4,5.9-1.2c1.7-0.8,3.3-2,4.9-3.6l5.4,4.8
			c-1.9,2.3-4.2,4.1-6.9,5.5c-2.7,1.4-5.8,2.1-9.5,2.1c-2.9,0-5.6-0.5-8.1-1.5c-2.5-1-4.7-2.4-6.5-4.3c-1.9-1.8-3.3-4-4.4-6.6
			s-1.6-5.4-1.6-8.6c0-2.9,0.5-5.6,1.4-8.1c1-2.5,2.3-4.8,4.1-6.7c1.7-1.9,3.8-3.4,6.2-4.5c2.4-1.1,5-1.7,7.9-1.7
			c3.2,0,6,0.6,8.4,1.8c2.4,1.2,4.4,2.7,6,4.7c1.6,2,2.8,4.3,3.6,6.9c0.8,2.6,1.2,5.4,1.2,8.3c0,0.4,0,0.8,0,1.2
			c0,0.4-0.1,0.8-0.1,1.3h-29.5C369.2,107.7,370.5,110.2,372.6,111.9z M389.2,98.3c-0.2-1.5-0.5-2.9-1-4.1c-0.5-1.3-1.2-2.4-2.1-3.3
			c-0.9-0.9-1.9-1.7-3.1-2.2c-1.2-0.6-2.5-0.8-4.1-0.8c-2.8,0-5.2,1-7,2.9c-1.9,2-3,4.5-3.4,7.6H389.2z"/>
		<path class="st1" d="M417.8,121.2h-9.3V81h9.3v9.1c1.3-3,3.1-5.5,5.4-7.3c2.3-1.8,5.3-2.7,8.8-2.5V90h-0.5c-2,0-3.9,0.3-5.6,1
			s-3.1,1.6-4.3,3s-2.2,3-2.8,5c-0.7,2-1,4.3-1,7V121.2z"/>
	</g>
	<g>
		<path class="st1" d="M135.6,154.6c-0.1,0.6-12.3-0.9-24.5-4.4c-8-2.3-15.8-5.4-23.2-9.3c-7.4-3.9-14.4-8.6-20.8-13.9
			c-6.4-5.4-12.3-11.4-17.6-17.9c-5.2-6.5-9.9-13.5-13.9-20.8c-4-7.3-7.4-15-10.3-22.8c-5.7-15.6-9.3-32-10.3-48.6
			c1.2,8.2,2.8,16.3,5,24.2c1.1,4,2.2,7.9,3.5,11.8c0.6,2,1.3,3.9,2,5.8c0.7,1.9,1.4,3.9,2.2,5.8c6.1,15.2,14,29.8,24.3,42.5
			c15.8,19.5,32.8,29.3,37,31.6c0.9,0.5,1.7,0.9,2.2,1.2c0.1-1.3,0.1-3.3-0.8-5.5c-0.3-0.6-0.6-1.2-0.9-1.7
			c-0.1,0.6-0.3,1.2-0.6,1.7c-0.2-1.2-0.4-2.3-0.6-3.4c-0.1-0.3-0.2-0.7-0.3-1c0-0.1-0.1-0.2-0.1-0.4c-0.4-1.2-0.9-2.4-1.6-3.5
			c-0.4-0.7-0.8-1.4-1.3-2c0,0.6,0,1.2,0,1.9c-0.5-1.3-1.1-2.7-1.7-3.9c0,0,0,0,0,0c-0.3-0.8-0.7-1.5-1-2.3c-0.2-0.5-0.5-1-0.8-1.5
			l-0.9-1.9c-0.3-0.6-0.7-1.2-1-1.8c-0.7-1.2-1.3-2.4-2.1-3.6c-2.8-4.7-6.2-8.9-9.8-13c-3.7-4-7.6-7.8-11.8-11.3
			c-2.4-2-4.8-3.9-7.3-5.9c0.3,1.5,0.9,2.9,1.6,4.2c1.1,2,2.6,3.8,4.4,5.3c-2.1-1.1-4-2.7-5.4-4.7c-1.5-1.9-2.5-4.2-3.1-6.7l0-0.2
			l-0.3-1.7l-2.5-11.9c-1-4.6-1.9-9.1-3.1-13.7c-1.1-4.5-2.2-9-3.7-13.4c-1.4-4.4-3-8.7-5.1-12.5c-2.9-5.2-6.2-8.5-8.3-10.6
			c-3.5-3.5-9.6-8.7-18.7-12.9c1.2,0.8,3.8,2.9,5.3,6.5c1.2,2.9,1.2,5.4,1.2,5.9c-0.1,2-0.7,3.9-1.2,5.7c-0.6,1.8-1.1,3.5-1.3,5.3
			c-0.2,1.4-0.3,2.9-0.2,4.4c0,0.3,0,0.6,0.1,1c0,0.3,0.1,0.6,0.1,0.9c0.4,3.3,1.5,6.5,3.1,9.6c-1.6-1.9-3-4.2-3.9-6.6
			c-0.4,1.7-0.8,3.5-1.1,5.2C5.7,44.7,5.4,49.4,5.9,54c0.4,4.6,1.8,9,4.2,13c2.3,4,5.7,7.4,9.5,10.2c-4.3-2-8.2-5.2-11-9.2
			c-1.4-2-2.5-4.2-3.3-6.5C4.5,59,4,56.6,3.7,54.2c-0.5-4.9,0-9.8,1.1-14.5c0.6-2.3,1.3-4.6,2.2-6.8c-0.2-0.6-0.3-1.1-0.4-1.7
			c-0.3-1.9-0.4-3.9-0.2-5.9c0.2-2,0.8-3.8,1.3-5.6c0.6-1.8,1.1-3.5,1.2-5.2c0.2-2.4-0.4-4.3-0.7-5.1C6.5,3.7,1.1,0.6,0,0
			c9.1,2.2,18.1,6.3,25.5,12.5c3.7,3.1,7,6.8,9.6,11c2.6,4.3,4.2,8.8,5.8,13.4c2.8,9.2,4.6,18.5,5.9,27.8c0.3,2.3,0.6,4.7,0.9,7
			l0.6,6.3c3.6,1.3,7,3.1,10.3,5.1c4.9,3.1,9.5,6.8,13.4,11.2c3.9,4.3,7.3,9.3,9.6,14.7c0.3,0.6,0.6,1.3,0.8,2l0.7,2.1
			c0.2,0.7,0.5,1.4,0.7,2.1l0.5,2.2c0.3,1.2,0.5,2.5,0.7,3.8c0.1,0.1,0.2,0.1,0.3,0.2c1.3,1,2.4,2.2,3.2,3.7
			c1.1,1.9,1.7,4.1,1.5,6.3c0.7,0.8,1.3,1.7,1.7,2.6c0.9,2,1.2,4.4,0.8,6.5c8,4.5,14.6,6.6,19.3,7.8c10.5,2.5,11.7,2.7,11.7,2.7
			c0.4,0.1,4.7,0.9,10.1,2.8C135.6,154.4,135.6,154.5,135.6,154.6z"/>
		<path class="st1" d="M11.5,74.3c1.2,6.8,4.1,17.7,11.8,28.6c14.7,20.8,36.4,26.7,42.9,28.2c-6.8-0.7-18.7-2.9-30.5-11
			c-4.5-3.2-20.4-14.2-23.8-33.5C11.1,81.6,11.2,77.3,11.5,74.3z"/>
		<path class="st1" d="M88.5,143.8c-2.9,0.5-6.3,0.9-10.1,0.8c-5.8-0.2-15.5-0.5-20.7-7.2c-1.7-2.2-2.5-4.6-2.9-6.4
			c2.8,2.6,7.2,6.2,13.5,8.9C76.6,143.4,84.2,143.9,88.5,143.8z"/>
	</g>
</g>
<g class="st2">
	<text transform="matrix(1 0 0 1 2.4883 118.5947)" class="st3 st4 st5">fmroster</text>
	<g class="st6">
		<path class="st7" d="M301.9,154.6c0.1,0.6,12.3-0.9,24.5-4.4c8-2.3,15.8-5.4,23.2-9.3c7.4-3.9,14.4-8.6,20.8-13.9
			c6.4-5.4,12.3-11.4,17.6-17.9c5.2-6.5,9.9-13.5,13.9-20.8c4-7.3,7.4-15,10.3-22.8c5.7-15.6,9.3-32,10.3-48.6
			c-1.2,8.2-2.8,16.3-5,24.2c-1.1,4-2.2,7.9-3.5,11.8c-0.6,2-1.3,3.9-2,5.8c-0.7,1.9-1.4,3.9-2.2,5.8c-6.1,15.2-14,29.8-24.3,42.5
			c-15.8,19.5-32.8,29.3-37,31.6c-0.9,0.5-1.7,0.9-2.2,1.2c-0.1-1.3-0.1-3.3,0.8-5.5c0.3-0.6,0.6-1.2,0.9-1.7
			c0.1,0.6,0.3,1.2,0.6,1.7c0.2-1.2,0.4-2.3,0.6-3.4c0.1-0.3,0.2-0.7,0.3-1c0-0.1,0.1-0.2,0.1-0.4c0.4-1.2,0.9-2.4,1.6-3.5
			c0.4-0.7,0.9-1.4,1.4-2c0,0.6,0,1.2,0,1.9c0.5-1.3,1.1-2.7,1.6-3.9c0,0,0,0,0,0c0.3-0.8,0.7-1.5,1-2.3c0.2-0.5,0.5-1,0.8-1.5
			l0.9-1.9c0.3-0.6,0.7-1.2,1-1.8c0.7-1.2,1.3-2.4,2-3.6c2.8-4.7,6.2-8.9,9.8-13c3.7-4,7.6-7.8,11.8-11.3c2.4-2,4.8-3.9,7.3-5.9
			c-0.3,1.5-0.9,2.9-1.6,4.2c-1.1,2-2.6,3.8-4.4,5.3c2.1-1.1,4-2.7,5.4-4.7c1.5-1.9,2.5-4.2,3.1-6.7l0-0.2l0.3-1.7l2.5-11.9
			c1-4.6,1.9-9.1,3.1-13.7c1.1-4.5,2.2-9,3.7-13.4c1.4-4.4,3-8.7,5.1-12.5c2.9-5.2,6.2-8.5,8.3-10.6c3.5-3.5,9.5-8.7,18.7-12.9
			c-1.2,0.8-3.8,2.9-5.3,6.5c-1.2,2.9-1.2,5.4-1.2,5.9c0.1,2,0.7,3.9,1.2,5.7c0.6,1.8,1.1,3.5,1.3,5.3c0.2,1.4,0.3,2.9,0.2,4.4
			c0,0.3,0,0.6-0.1,1c0,0.3-0.1,0.6-0.1,0.9c-0.4,3.3-1.5,6.5-3.1,9.6c1.6-1.9,3-4.2,3.9-6.6c0.4,1.7,0.8,3.5,1.1,5.2
			c0.8,4.6,1.1,9.3,0.6,13.9c-0.5,4.6-1.8,9-4.2,13c-2.3,4-5.7,7.4-9.5,10.2c4.3-2,8.2-5.2,11-9.2c1.4-2,2.5-4.2,3.3-6.5
			c0.8-2.3,1.3-4.7,1.6-7.2c0.5-4.9,0-9.8-1.1-14.5c-0.6-2.3-1.3-4.6-2.1-6.8c0.2-0.6,0.3-1.1,0.4-1.7c0.4-1.9,0.4-3.9,0.2-5.9
			c-0.2-2-0.8-3.8-1.3-5.6c-0.6-1.8-1.1-3.5-1.2-5.2c-0.2-2.4,0.4-4.3,0.7-5.1c1.8-5.7,7.1-8.8,8.2-9.4c-9.1,2.2-18.1,6.3-25.5,12.5
			c-3.7,3.1-7,6.8-9.6,11c-2.6,4.3-4.2,8.8-5.8,13.4c-2.8,9.1-4.6,18.5-5.9,27.8c-0.3,2.3-0.6,4.7-0.9,7l-0.6,6.3
			c-3.6,1.3-7,3.1-10.3,5.1c-4.9,3.1-9.5,6.8-13.4,11.2c-3.9,4.3-7.3,9.3-9.6,14.7c-0.3,0.6-0.6,1.3-0.8,2l-0.7,2.1
			c-0.2,0.7-0.5,1.4-0.6,2.1l-0.5,2.2c-0.3,1.2-0.5,2.5-0.7,3.8c-0.1,0.1-0.2,0.1-0.3,0.2c-1.3,1-2.4,2.2-3.2,3.7
			c-1.1,1.9-1.7,4.1-1.5,6.3c-0.7,0.8-1.3,1.7-1.7,2.6c-0.9,2-1.2,4.4-0.8,6.5c-8,4.5-14.6,6.6-19.3,7.8
			c-10.5,2.5-11.7,2.7-11.7,2.7c-0.4,0.1-4.7,0.9-10.1,2.8C301.9,154.4,301.9,154.5,301.9,154.6z"/>
		<path class="st7" d="M426,74.3c-1.2,6.8-4.1,17.7-11.8,28.6c-14.7,20.8-36.4,26.7-42.9,28.2c6.9-0.7,18.7-2.9,30.5-11
			c4.5-3.2,20.4-14.2,23.8-33.5C426.5,81.6,426.4,77.3,426,74.3z"/>
		<path class="st7" d="M349,143.8c2.9,0.5,6.3,0.9,10.1,0.8c5.8-0.2,15.5-0.5,20.7-7.2c1.7-2.2,2.5-4.6,2.9-6.4
			c-2.8,2.6-7.2,6.2-13.5,8.9C360.9,143.4,353.3,143.9,349,143.8z"/>
	</g>
</g>
</svg>
